# xmcd
#
# Track frame offsets: 
#        150
#        18955
#        65395
#        111367
#
# Disc length: 1949 seconds
#
# Revision: 10
# Processed by: cddbd v1.5.2PL0 Copyright (c) Steve Scherf et al.
# Submitted via: ExactAudioCopyFreeDBPlugin 1.0
#
DISCID=2c079b04
DTITLE=Underworld / Moaner
DYEAR=1997
DGENRE=Electronic
TTITLE0=Moaner (Short Version)
TTITLE1=Moaner (Album Version)
TTITLE2=Moaner (Relentless Legs Mix)
TTITLE3=Moaner (Long Version)
EXTD=
EXTT0=
EXTT1=
EXTT2=
EXTT3=
PLAYORDER=
